<svg xmlns="http://www.w3.org/2000/svg" width="256" height="256" viewBox="0 0 256 256"><defs><linearGradient id="m" x1="0" y1="0" x2="1" y2="1"><stop stop-color="#f7f7f3"/><stop offset=".48" stop-color="#bfc1bc"/><stop offset="1" stop-color="#666963"/></linearGradient><linearGradient id="g" x1="0" y1="0" x2="0" y2="1"><stop stop-color="#f6d76d"/><stop offset="1" stop-color="#a77a12"/></linearGradient><radialGradient id="b"><stop stop-color="#b8dbe5"/><stop offset="1" stop-color="#487485"/></radialGradient><filter id="s" x="-20%" y="-20%" width="140%" height="160%"><feDropShadow dx="0" dy="8" stdDeviation="7" flood-opacity=".28"/></filter></defs><g filter="url(#s)"><circle cx="128" cy="128" r="105" fill="url(#m)" stroke="#555752" stroke-width="5"/><path d="M128 128 72 31a105 105 0 0 1 143 38zM128 128h112a105 105 0 0 1-82 160zM128 128 72 225A105 105 0 0 1 72 31z" transform="translate(0 -23) scale(1 .98)" fill="url(#g)" stroke="#79570b" stroke-width="4" stroke-linejoin="round"/><circle cx="128" cy="128" r="49" fill="url(#m)" stroke="#555752" stroke-width="5"/><circle cx="128" cy="128" r="31" fill="url(#b)" stroke="#3d5963" stroke-width="4"/><circle cx="117" cy="116" r="8" fill="#eef9fb" opacity=".7"/></g></svg>
