<svg xmlns="http://www.w3.org/2000/svg" width="256" height="256" viewBox="0 0 256 256">
  <defs><radialGradient id="g"><stop stop-color="#fff0a0"/><stop offset=".65" stop-color="#e4be45"/><stop offset="1" stop-color="#a77a12"/></radialGradient><linearGradient id="m" x1="0" y1="0" x2="1" y2="1"><stop stop-color="#f5f5f2"/><stop offset=".55" stop-color="#bfc1bc"/><stop offset="1" stop-color="#6d706a"/></linearGradient><filter id="s" x="-20%" y="-20%" width="140%" height="160%"><feDropShadow dx="0" dy="8" stdDeviation="7" flood-opacity=".25"/></filter></defs>
  <g filter="url(#s)"><circle cx="105" cy="94" r="59" fill="url(#g)" stroke="#79570b" stroke-width="5"/><path d="M105 15v22M105 151v22M26 94h22M162 94h22M49 38l16 16M145 134l16 16M49 150l16-16M145 54l16-16" stroke="#d6a928" stroke-width="10" stroke-linecap="round"/><path d="M63 207c-25 0-45-18-45-41s20-42 45-42c8-28 32-47 61-47 35 0 63 27 64 61 28 1 50 18 50 42 0 25-24 45-54 45H63z" fill="url(#m)" stroke="#666863" stroke-width="5"/><path d="M51 186h143" stroke="#fff" stroke-width="5" opacity=".55" stroke-linecap="round"/></g>
</svg>
