<svg xmlns="http://www.w3.org/2000/svg" width="256" height="256" viewBox="0 0 256 256">
  <defs><linearGradient id="m" x1="0" y1="0" x2="1" y2="1"><stop stop-color="#f7f7f3"/><stop offset=".48" stop-color="#bfc1bc"/><stop offset="1" stop-color="#666963"/></linearGradient><linearGradient id="g" x1="0" y1="0" x2="0" y2="1"><stop stop-color="#f3cf62"/><stop offset="1" stop-color="#a77a12"/></linearGradient><filter id="s" x="-20%" y="-20%" width="140%" height="160%"><feDropShadow dx="0" dy="8" stdDeviation="7" flood-opacity=".27"/></filter></defs>
  <g filter="url(#s)"><rect x="34" y="24" width="112" height="208" rx="13" fill="url(#m)" stroke="#555752" stroke-width="5"/><rect x="50" y="43" width="80" height="40" rx="6" fill="#292b28"/><rect x="50" y="94" width="80" height="40" rx="6" fill="#292b28"/><circle cx="64" cy="63" r="6" fill="#4d9c62"/><circle cx="64" cy="114" r="6" fill="#f3cf62"/><path d="M78 63h37M78 114h37" stroke="#777a75" stroke-width="6" stroke-linecap="round"/><circle cx="90" cy="182" r="28" fill="url(#g)" stroke="#79570b" stroke-width="4"/><path d="m82 168 23 14-23 14z" fill="#292b28"/><circle cx="160" cy="128" r="9" fill="#f3cf62" stroke="#79570b" stroke-width="3"/><path d="M176 105a32 32 0 0 1 0 46M190 90a53 53 0 0 1 0 76M205 76a73 73 0 0 1 0 104" fill="none" stroke="#666963" stroke-width="10" stroke-linecap="round"/></g>
</svg>
